<svg xmlns="http://www.w3.org/2000/svg" xmlns:xlink="http://www.w3.org/1999/xlink" viewBox="0 0 512 512" width="512" height="512" preserveAspectRatio="xMidYMid meet" style="width: 100%; height: 100%; transform: translate3d(0px, 0px, 0px); content-visibility: visible;" id="Swipe Down Arrow"><defs><clipPath id="__lottie_element_17253"><rect width="512" height="512" x="0" y="0"/></clipPath></defs><g clip-path="url(#__lottie_element_17253)"><g transform="matrix(0,1,-1,0,256.156005859375,257.2619934082031)" opacity="1" style="display: block;"><g opacity="1" transform="matrix(1,0,0,1,0,0)"><path stroke-linecap="butt" stroke-linejoin="miter" fill-opacity="0" stroke-miterlimit="10" stroke="rgb(45,37,38)" stroke-opacity="1" stroke-width="18" d=" M133.75613403320312,64.44087982177734 C133.75613403320312,64.44087982177734 -164.5,64.5 -164.5,64.5 C-200.1219940185547,64.5 -229,35.62200164794922 -229,0 C-229,0 -229,0 -229,0 C-229,-35.62200164794922 -200.1219940185547,-64.5 -164.5,-64.5 C-164.5,-64.5 133.75613403320312,-64.55912017822266 133.75613403320312,-64.55912017822266 C169.3781280517578,-64.55912017822266 198.25613403320312,-35.681121826171875 198.25613403320312,-0.059122830629348755 C198.25613403320312,-0.059122830629348755 198.25613403320312,-0.059122830629348755 198.25613403320312,-0.059122830629348755 C198.25613403320312,35.5628776550293 169.3781280517578,64.44087982177734 133.75613403320312,64.44087982177734z"/><path fill="rgb(230,214,213)" fill-opacity="1" d=" M133.75613403320312,64.44087982177734 C133.75613403320312,64.44087982177734 -164.5,64.5 -164.5,64.5 C-200.1219940185547,64.5 -229,35.62200164794922 -229,0 C-229,0 -229,0 -229,0 C-229,-35.62200164794922 -200.1219940185547,-64.5 -164.5,-64.5 C-164.5,-64.5 133.75613403320312,-64.55912017822266 133.75613403320312,-64.55912017822266 C169.3781280517578,-64.55912017822266 198.25613403320312,-35.681121826171875 198.25613403320312,-0.059122830629348755 C198.25613403320312,-0.059122830629348755 198.25613403320312,-0.059122830629348755 198.25613403320312,-0.059122830629348755 C198.25613403320312,35.5628776550293 169.3781280517578,64.44087982177734 133.75613403320312,64.44087982177734z"/></g></g><g transform="matrix(0,1,-1,0,660.469970703125,-149.22137451171875)" opacity="1" style="display: block;"><g opacity="1" transform="matrix(1,0,0,1,0,0)"><g opacity="1" transform="matrix(1,0,0,1,532.677001953125,417.177001953125)"><path fill="rgb(230,214,213)" fill-opacity="1" d=" M-12.37399959564209,12.727999687194824 C-12.37399959564209,12.727999687194824 12.37399959564209,-12.727999687194824 12.37399959564209,-12.727999687194824"/><path stroke-linecap="round" stroke-linejoin="round" fill-opacity="0" stroke="rgb(45,37,38)" stroke-opacity="1" stroke-width="12" d=" M-12.37399959564209,12.727999687194824 C-12.37399959564209,12.727999687194824 12.37399959564209,-12.727999687194824 12.37399959564209,-12.727999687194824"/></g><g opacity="1" transform="matrix(1,0,0,1,532.677001953125,391.72100830078125)"><path fill="rgb(230,214,213)" fill-opacity="1" d=" M-12.727999687194824,-12.37399959564209 C-12.727999687194824,-12.37399959564209 12.727999687194824,12.37399959564209 12.727999687194824,12.37399959564209"/><path stroke-linecap="round" stroke-linejoin="round" fill-opacity="0" stroke="rgb(45,37,38)" stroke-opacity="1" stroke-width="12" d=" M-12.727999687194824,-12.37399959564209 C-12.727999687194824,-12.37399959564209 12.727999687194824,12.37399959564209 12.727999687194824,12.37399959564209"/></g></g><g opacity="1" transform="matrix(1,0,0,1,-50,0)"><g opacity="1" transform="matrix(1,0,0,1,532.677001953125,417.177001953125)"><path fill="rgb(230,214,213)" fill-opacity="1" d=" M-12.37399959564209,12.727999687194824 C-12.37399959564209,12.727999687194824 12.37399959564209,-12.727999687194824 12.37399959564209,-12.727999687194824"/><path stroke-linecap="round" stroke-linejoin="round" fill-opacity="0" stroke="rgb(45,37,38)" stroke-opacity="1" stroke-width="12" d=" M-12.37399959564209,12.727999687194824 C-12.37399959564209,12.727999687194824 12.37399959564209,-12.727999687194824 12.37399959564209,-12.727999687194824"/></g><g opacity="1" transform="matrix(1,0,0,1,532.677001953125,391.72100830078125)"><path fill="rgb(230,214,213)" fill-opacity="1" d=" M-12.727999687194824,-12.37399959564209 C-12.727999687194824,-12.37399959564209 12.727999687194824,12.37399959564209 12.727999687194824,12.37399959564209"/><path stroke-linecap="round" stroke-linejoin="round" fill-opacity="0" stroke="rgb(45,37,38)" stroke-opacity="1" stroke-width="12" d=" M-12.727999687194824,-12.37399959564209 C-12.727999687194824,-12.37399959564209 12.727999687194824,12.37399959564209 12.727999687194824,12.37399959564209"/></g></g></g></g></svg>