<svg xmlns="http://www.w3.org/2000/svg" width="144.083" height="144" id="instagram" fill="#E6D7D580">
  <path d="M83.401 50.849h8.92v9.189h-8.92zM86.846 71.899c0 8.163-6.642 14.805-14.805 14.805-8.164 0-14.806-6.642-14.806-14.805 0-2.209.5-4.3 1.371-6.185h-9.784v25.414a4.189 4.189 0 0 0 4.184 4.184h38.07a4.189 4.189 0 0 0 4.184-4.184V65.715h-9.785a14.699 14.699 0 0 1 1.371 6.184z"></path>
  <path d="M72.042 80.704c4.854 0 8.805-3.95 8.805-8.805a8.776 8.776 0 0 0-2.547-6.185H65.782a8.777 8.777 0 0 0-2.546 6.185c0 4.855 3.95 8.805 8.806 8.805z"></path>
  <path d="M72.041 14.165c-31.94 0-57.833 25.894-57.833 57.834 0 31.939 25.893 57.836 57.833 57.836s57.835-25.896 57.835-57.836c-.001-31.94-25.895-57.834-57.835-57.834zm29.219 76.964c0 5.615-4.568 10.184-10.184 10.184h-38.07c-5.615 0-10.184-4.568-10.184-10.184V52.884c0-5.615 4.568-10.184 10.184-10.184h38.07c5.615 0 10.184 4.568 10.184 10.184v38.245z"></path>
</svg>